<?xml version="1.0" encoding="UTF-8"?>
<!DOCTYPE svg PUBLIC "-//W3C//DTD SVG 1.1//EN" "http://www.w3.org/Graphics/SVG/1.1/DTD/svg11.dtd">
<!-- Creator: CorelDRAW X8 -->
<svg xmlns="http://www.w3.org/2000/svg" xml:space="preserve" version="1.1" style="shape-rendering:geometricPrecision; text-rendering:geometricPrecision; image-rendering:optimizeQuality; fill-rule:evenodd; clip-rule:evenodd"
viewBox="0 0 1984 817"
 xmlns:xlink="http://www.w3.org/1999/xlink">
 <defs>
  <style type="text/css">
   <![CDATA[
    .str0 {stroke:#FFE500;stroke-width:2.06447}
    .fil0 {fill:none}
    .fil2 {fill:none;fill-rule:nonzero}
    .fil1 {fill:#FFE500;fill-rule:nonzero}
   ]]>
  </style>
 </defs>
 <g id="Layer_x0020_1">
  <metadata id="CorelCorpID_0Corel-Layer"/>
  <path class="fil0 str0" d="M1983 815l0 -236 -32 0 0 236 32 0zm-95 -34l-64 0 0 34 101 0 0 -236 -101 0 0 34 64 0 0 69 -51 0 0 33 51 0 0 66zm-76 0l-39 0 0 -202 -37 0 0 202 -39 0 0 34 115 0 0 -34z"/>
  <path class="fil0 str0" d="M1983 545l0 -65 -46 -170 -38 0 0 235 33 0 0 -141 38 141 13 0zm-166 -138l-17 0 0 -43c0,-17 8,-23 20,-23 11,0 19,6 19,23l0 127c0,17 -8,23 -19,23 -12,0 -20,-6 -20,-23l0 -25 -35 0 0 23c0,37 19,59 56,59 36,0 55,-22 55,-59l0 -123c0,-37 -19,-59 -55,-59 -37,0 -56,22 -56,59l0 75 52 0 0 -34z"/>
  <path class="fil0 str0" d="M722 545l52 0 0 -235 -33 0 0 166 -27 -166 -35 0 -26 169 0 -169 -35 0 0 235 52 0 25 -167 27 167zm-721 -235l0 235 66 0 0 -33 -39 0 0 -202 -27 0zm508 235l54 0 38 -235 -34 0 -6 43 -46 0 -6 -43 -37 0 37 235zm29 -41l-18 -120 36 0 -18 120zm-198 -194c3,9 4,17 4,28l0 37c0,24 6,42 24,50 -16,8 -24,23 -24,48l0 18c0,36 16,54 55,54l56 0 0 -235 -37 0 0 96 -13 0c-17,0 -24,-8 -24,-30l0 -37c0,-19 -2,-23 -4,-29l-37 0zm60 202c-13,0 -19,-8 -19,-25l0 -23c0,-19 8,-25 22,-25l15 0 0 73 -18 0zm-165 -202l-38 0 51 130 -51 105 37 0 48 -102 0 102 37 0 0 -235 -37 0 0 72 -11 22 -36 -94zm-92 202l-64 0 0 33 101 0 0 -235 -101 0 0 33 64 0 0 69 -51 0 0 34 51 0 0 66z"/>
  <path class="fil1" d="M802 546l37 0 0 -236 -37 0 0 236zm143 0l38 0 0 -236 -33 0 0 141 -38 -141 -47 0 0 236 33 0 0 -171 47 171zm53 -202l39 0 0 202 37 0 0 -202 39 0 0 -34 -115 0 0 34zm168 0l64 0 0 -34 -101 0 0 236 101 0 0 -34 -64 0 0 -69 51 0 0 -33 -51 0 0 -66zm202 202c-4,-9 -4,-17 -4,-29l0 -36c0,-25 -6,-43 -25,-50 16,-8 24,-24 24,-48l0 -19c0,-36 -16,-54 -55,-54l-55 0 0 236 37 0 0 -96 12 0c17,0 25,8 25,30l0 37c0,19 1,23 3,29l38 0zm-61 -202c14,0 19,7 19,24l0 23c0,19 -8,25 -22,25l-14 0 0 -72 17 0zm160 202l38 0 0 -236 -33 0 0 141 -38 -141 -47 0 0 236 34 0 0 -171 46 171zm101 -202l64 0 0 -34 -101 0 0 236 101 0 0 -34 -64 0 0 -69 51 0 0 -33 -51 0 0 -66zm76 0l39 0 0 202 37 0 0 -202 39 0 0 -34 -115 0 0 34z"/>
  <path class="fil1" d="M578 579l-51 0 0 235 32 0 0 -166 28 166 35 0 25 -168 0 168 35 0 0 -235 -51 0 -25 167 -28 -167zm213 0l-54 0 -38 235 34 0 7 -42 45 0 6 42 38 0 -38 -235zm-29 42l18 119 -36 0 18 -119zm199 193c-4,-8 -4,-17 -4,-28l0 -36c0,-25 -6,-43 -25,-50 17,-8 24,-24 24,-48l0 -19c0,-36 -16,-54 -54,-54l-56 0 0 235 37 0 0 -95 13 0c16,0 24,8 24,30l0 37c0,19 1,22 3,28l38 0zm-60 -201c13,0 18,7 18,24l0 23c0,19 -8,25 -22,25l-14 0 0 -72 18 0zm164 201l38 0 -51 -130 51 -105 -37 0 -48 103 0 -103 -37 0 0 235 37 0 0 -72 11 -21 36 93zm92 -201l64 0 0 -34 -101 0 0 235 101 0 0 -33 -64 0 0 -69 51 0 0 -34 -51 0 0 -65zm76 0l39 0 0 201 36 0 0 -201 39 0 0 -34 -114 0 0 34zm130 201l37 0 0 -235 -37 0 0 235zm143 0l38 0 0 -235 -33 0 0 141 -38 -141 -46 0 0 235 33 0 0 -170 46 170zm120 -97l17 0 0 43c0,17 -8,23 -19,23 -12,0 -20,-6 -20,-23l0 -127c0,-16 8,-23 20,-23 11,0 19,7 19,23l0 26 35 0 0 -23c0,-38 -19,-59 -55,-59 -37,0 -55,21 -55,59l0 122c0,38 18,59 55,59 36,0 55,-21 55,-59l0 -75 -52 0 0 34z"/>
  <rect class="fil0" x="1" width="1982" height="310"/>
  <path class="fil2 str0" d="M511 579l-37 0 0 236 37 0 0 -236zm-510 95l0 36c2,-1 5,-1 8,-1l14 0 0 72 -18 0c-1,0 -3,0 -4,0l0 34c1,0 2,0 3,0l56 0 0 -236 -37 0 0 96 -13 0c-3,0 -6,0 -9,-1zm367 -95l-38 0 0 236 33 0 0 -141 38 141 46 0 0 -236 -33 0 0 171 -46 -171zm-54 202l-38 0 0 -202 -37 0 0 202 -39 0 0 34 114 0 0 -34zm-167 0l-64 0 0 34 101 0 0 -236 -101 0 0 34 64 0 0 69 -51 0 0 33 51 0 0 66z"/>
 </g>
</svg>
